<svg width="110" height="110" viewBox="0 0 110 110" fill="none" xmlns="http://www.w3.org/2000/svg">
<rect x="1" y="1" width="108" height="108" rx="54" fill="#101728" stroke="#101728" stroke-width="2"/>
<path d="M89.9297 54.7127V43.0442H94.1231V54.7127H89.9297ZM92.0264 41.8287C91.4592 41.8287 90.973 41.6413 90.5678 41.2666C90.1627 40.8918 89.9601 40.4411 89.9601 39.9144C89.9601 39.3877 90.1627 38.9369 90.5678 38.5622C90.973 38.1874 91.4592 38 92.0264 38C92.5987 38 93.0848 38.1874 93.4849 38.5622C93.8901 38.9369 94.0927 39.3877 94.0927 39.9144C94.0927 40.4411 93.8901 40.8918 93.4849 41.2666C93.0848 41.6413 92.5987 41.8287 92.0264 41.8287Z" fill="white"/>
<path d="M79.5287 59.0882C79.0475 59.0882 78.5892 59.0502 78.1537 58.9742C77.7181 58.9033 77.3357 58.8045 77.0066 58.6779L77.9182 55.7C78.2625 55.8216 78.5765 55.9001 78.8602 55.9355C79.1488 55.971 79.3944 55.9507 79.597 55.8748C79.8047 55.7988 79.9541 55.6545 80.0452 55.4417L80.1364 55.229L76.0342 43.0439H80.4099L82.2939 51.1268H82.4154L84.3298 43.0439H88.7358L84.4817 55.6848C84.269 56.328 83.9601 56.9054 83.5549 57.4169C83.1548 57.9335 82.6281 58.3412 81.9748 58.64C81.3215 58.9388 80.5061 59.0882 79.5287 59.0882Z" fill="white"/>
<path d="M75.3602 43.0446V46.0832H67.5508V43.0446H75.3602ZM69.0397 54.7131V42.7103C69.0397 41.7481 69.2119 40.9504 69.5563 40.3174C69.9007 39.6843 70.3869 39.2108 71.0149 38.8968C71.6429 38.5828 72.3823 38.4258 73.2331 38.4258C73.7649 38.4258 74.2815 38.4663 74.7828 38.5473C75.2893 38.6284 75.6641 38.6993 75.9071 38.76L75.2994 41.7683C75.1475 41.7227 74.9702 41.6873 74.7676 41.662C74.5651 41.6316 74.3878 41.6164 74.2359 41.6164C73.8408 41.6164 73.575 41.7 73.4382 41.8671C73.3015 42.0342 73.2331 42.2545 73.2331 42.528V54.7131H69.0397Z" fill="white"/>
<path d="M63.9641 54.9562C63.3766 54.9562 62.8727 54.7511 62.4523 54.3409C62.0371 53.9256 61.8319 53.4217 61.837 52.8291C61.8319 52.2518 62.0371 51.758 62.4523 51.3478C62.8727 50.9375 63.3766 50.7324 63.9641 50.7324C64.5212 50.7324 65.0124 50.9375 65.4378 51.3478C65.8683 51.758 66.0861 52.2518 66.0912 52.8291C66.0861 53.2241 65.9823 53.5837 65.7797 53.9078C65.5822 54.2269 65.3239 54.4827 65.0048 54.6751C64.6858 54.8625 64.3388 54.9562 63.9641 54.9562Z" fill="#5EC16A"/>
<path d="M46.9092 54.4672V38.9092H53.6247C54.7794 38.9092 55.7897 39.1194 56.6557 39.5397C57.5218 39.9601 58.1953 40.5653 58.6765 41.3553C59.1576 42.1454 59.3981 43.0924 59.3981 44.1965C59.3981 45.3107 59.15 46.2501 58.6537 47.0149C58.1624 47.7796 57.4711 48.3569 56.5798 48.7469C55.6935 49.1369 54.6578 49.3318 53.4727 49.3318H49.4617V46.0501H52.6219C53.1182 46.0501 53.5411 45.9893 53.8905 45.8678C54.2451 45.7411 54.516 45.5411 54.7034 45.2676C54.8958 44.9941 54.9921 44.6371 54.9921 44.1965C54.9921 43.7508 54.8958 43.3887 54.7034 43.1102C54.516 42.8265 54.2451 42.6189 53.8905 42.4872C53.5411 42.3505 53.1182 42.2821 52.6219 42.2821H51.1329V54.4672H46.9092ZM56.0252 47.3263L59.9147 54.4672H55.3263L51.528 47.3263H56.0252Z" fill="white"/>
<path d="M37.8465 54.7143H31.8604V39.1562H37.7858C39.3861 39.1562 40.7687 39.4677 41.9336 40.0906C43.1035 40.7085 44.0049 41.5999 44.638 42.7647C45.2761 43.9244 45.5952 45.3146 45.5952 46.9353C45.5952 48.5559 45.2786 49.9486 44.6456 51.1134C44.0125 52.2732 43.1161 53.1646 41.9564 53.7875C40.7966 54.4053 39.4267 54.7143 37.8465 54.7143ZM36.0841 51.1286H37.6946C38.4644 51.1286 39.1203 51.0046 39.6622 50.7564C40.2091 50.5082 40.6244 50.0803 40.908 49.4726C41.1967 48.8648 41.341 48.0191 41.341 46.9353C41.341 45.8515 41.1942 45.0057 40.9004 44.398C40.6117 43.7902 40.1863 43.3623 39.6242 43.1141C39.0671 42.866 38.3834 42.7419 37.5731 42.7419H36.0841V51.1286Z" fill="white"/>
<path d="M30.5857 44.9894H26.3011C26.2707 44.6348 26.1897 44.3132 26.058 44.0246C25.9314 43.7359 25.7542 43.4877 25.5263 43.2801C25.3034 43.0674 25.0325 42.9053 24.7134 42.7939C24.3943 42.6774 24.0322 42.6192 23.6271 42.6192C22.9181 42.6192 22.3179 42.7914 21.8267 43.1358C21.3405 43.4801 20.9708 43.9739 20.7175 44.6171C20.4694 45.2603 20.3453 46.0326 20.3453 46.9341C20.3453 47.8862 20.4719 48.6839 20.7251 49.3271C20.9834 49.9652 21.3557 50.4463 21.8419 50.7704C22.328 51.0895 22.913 51.249 23.5967 51.249C23.9867 51.249 24.3361 51.2009 24.645 51.1047C24.954 51.0034 25.2224 50.8591 25.4503 50.6717C25.6782 50.4843 25.863 50.2589 26.0048 49.9956C26.1517 49.7272 26.2505 49.4258 26.3011 49.0916L30.5857 49.122C30.535 49.7803 30.3502 50.4514 30.0311 51.1351C29.712 51.8137 29.2588 52.4417 28.6713 53.0191C28.0889 53.5913 27.3672 54.0522 26.5062 54.4017C25.6453 54.7511 24.645 54.9258 23.5055 54.9258C22.0774 54.9258 20.796 54.6194 19.6616 54.0066C18.5322 53.3938 17.6384 52.4924 16.98 51.3022C16.3267 50.1121 16 48.656 16 46.9341C16 45.2021 16.3343 43.7435 17.0028 42.5584C17.6713 41.3683 18.5727 40.4693 19.7072 39.8616C20.8416 39.2488 22.1077 38.9424 23.5055 38.9424C24.488 38.9424 25.392 39.0766 26.2176 39.345C27.0431 39.6134 27.7673 40.0059 28.3902 40.5225C29.0131 41.034 29.5145 41.6645 29.8944 42.4141C30.2742 43.1636 30.5046 44.022 30.5857 44.9894Z" fill="white"/>
<path d="M22.5889 71V63H25.4404C26.0628 63 26.5785 63.1133 26.9873 63.3398C27.3962 63.5664 27.7021 63.8763 27.9053 64.2695C28.1084 64.6602 28.21 65.1003 28.21 65.5898C28.21 66.082 28.1071 66.5247 27.9014 66.918C27.6982 67.3086 27.391 67.6185 26.9795 67.8477C26.5706 68.0742 26.0563 68.1875 25.4365 68.1875H23.4756V67.1641H25.3271C25.7204 67.1641 26.0394 67.0964 26.2842 66.9609C26.529 66.8229 26.7087 66.6354 26.8232 66.3984C26.9378 66.1615 26.9951 65.8919 26.9951 65.5898C26.9951 65.2878 26.9378 65.0195 26.8232 64.7852C26.7087 64.5508 26.5277 64.3672 26.2803 64.2344C26.0355 64.1016 25.7126 64.0352 25.3115 64.0352H23.7959V71H22.5889ZM32.2021 71H30.9209L33.7998 63H35.1943L38.0732 71H36.792L34.5303 64.4531H34.4678L32.2021 71ZM32.417 67.8672H36.5732V68.8828H32.417V67.8672ZM41.9785 71V63H44.8301C45.4499 63 45.9642 63.1068 46.373 63.3203C46.7845 63.5339 47.0918 63.8294 47.2949 64.207C47.498 64.582 47.5996 65.0156 47.5996 65.5078C47.5996 65.9974 47.4967 66.4284 47.291 66.8008C47.0879 67.1706 46.7806 67.4583 46.3691 67.6641C45.9603 67.8698 45.446 67.9727 44.8262 67.9727H42.666V66.9336H44.7168C45.1074 66.9336 45.4251 66.8776 45.6699 66.7656C45.9173 66.6536 46.0983 66.4909 46.2129 66.2773C46.3275 66.0638 46.3848 65.8073 46.3848 65.5078C46.3848 65.2057 46.3262 64.944 46.209 64.7227C46.0944 64.5013 45.9134 64.332 45.666 64.2148C45.4212 64.0951 45.0996 64.0352 44.7012 64.0352H43.1855V71H41.9785ZM45.9277 67.3906L47.9043 71H46.5293L44.5918 67.3906H45.9277ZM51.4238 64.0391V63H57.6152V64.0391H55.1191V71H53.916V64.0391H51.4238ZM68.1904 63V71H67.0811L63.0146 65.1328H62.9404V71H61.7334V63H62.8506L66.9209 68.875H66.9951V63H68.1904ZM72.7012 71V63H77.7168V64.0391H73.9082V66.4766H77.4551V67.5117H73.9082V69.9609H77.7637V71H72.7012ZM82.0791 71V63H84.9307C85.5505 63 86.0648 63.1068 86.4736 63.3203C86.8851 63.5339 87.1924 63.8294 87.3955 64.207C87.5986 64.582 87.7002 65.0156 87.7002 65.5078C87.7002 65.9974 87.5973 66.4284 87.3916 66.8008C87.1885 67.1706 86.8812 67.4583 86.4697 67.6641C86.0609 67.8698 85.5465 67.9727 84.9268 67.9727H82.7666V66.9336H84.8174C85.208 66.9336 85.5257 66.8776 85.7705 66.7656C86.0179 66.6536 86.1989 66.4909 86.3135 66.2773C86.4281 66.0638 86.4854 65.8073 86.4854 65.5078C86.4854 65.2057 86.4268 64.944 86.3096 64.7227C86.195 64.5013 86.014 64.332 85.7666 64.2148C85.5218 64.0951 85.2002 64.0352 84.8018 64.0352H83.2861V71H82.0791ZM86.0283 67.3906L88.0049 71H86.6299L84.6924 67.3906H86.0283Z" fill="white"/>
</svg>
