<svg width="1490" height="740" viewBox="0 0 1490 740" fill="none" xmlns="http://www.w3.org/2000/svg">
<path d="M0 7.99999C0 3.58171 3.58172 0 8 0H1482C1486.42 0 1490 3.58172 1490 8V732C1490 736.418 1486.42 740 1482 740H8C3.58172 740 0 736.418 0 732V7.99999Z" fill="#1E293B"/>
<path d="M543.846 337.273H503.334C502.746 330.547 500.333 325.127 496.027 321.012C491.721 316.898 485.72 314.808 478.022 314.808C467.975 314.808 460.277 318.4 454.993 325.649C449.644 332.833 447.034 342.89 447.034 355.69C447.034 369.208 449.709 379.396 455.123 386.253C460.538 393.11 468.04 396.506 477.761 396.506C485.067 396.506 490.939 394.678 495.309 391.02C499.68 387.363 502.355 382.4 503.334 376.131L543.846 376.392C543.389 382.596 541.628 388.931 538.627 395.396C535.626 401.861 531.32 407.804 525.84 413.224C520.295 418.645 513.445 423.02 505.356 426.351C497.267 429.682 487.742 431.314 476.978 431.314C463.474 431.314 451.405 428.441 440.706 422.629C430.007 416.816 421.526 408.327 415.329 397.029C409.131 385.796 406 371.951 406 355.69C406 339.429 409.131 325.453 415.459 314.22C421.787 302.988 430.268 294.498 441.032 288.686C451.796 282.873 463.735 280 476.913 280C489.242 280 500.267 282.22 509.988 286.661C519.708 291.102 527.471 297.633 533.408 306.122C539.344 314.612 542.802 324.996 543.846 337.208V337.273Z" fill="white"/>
<path d="M616.195 429.289H559.634V282.024H615.673C630.808 282.024 643.855 284.963 654.88 290.84C665.905 296.718 674.452 305.143 680.453 316.114C686.455 327.085 689.456 340.277 689.456 355.624C689.456 370.971 686.455 384.163 680.453 395.134C674.452 406.106 665.971 414.596 655.011 420.408C644.051 426.22 631.069 429.224 616.13 429.224L616.195 429.289ZM599.559 395.33H614.76C622.066 395.33 628.264 394.155 633.417 391.804C638.571 389.453 642.485 385.404 645.16 379.657C647.835 373.91 649.205 365.877 649.205 355.624C649.205 345.371 647.835 337.338 645.095 331.592C642.355 325.845 638.31 321.796 633.026 319.445C627.742 317.094 621.283 315.918 613.585 315.918H599.494V395.265L599.559 395.33Z" fill="white"/>
<path d="M705.503 429.289V282.024H768.979C779.873 282.024 789.463 283.983 797.618 287.967C805.838 291.951 812.166 297.698 816.732 305.143C821.299 312.587 823.582 321.6 823.582 332.049C823.582 342.498 821.364 350.922 816.928 357.975C812.492 365.094 806.359 370.514 798.596 374.302L828.475 429.224H785.092L759.258 380.636H745.493V429.224H705.568L705.503 429.289ZM745.428 349.616H759.519C766.5 349.616 771.98 348.245 775.959 345.567C779.939 342.889 781.896 338.383 781.896 332.114C781.896 325.845 779.873 321.208 775.959 318.334C771.98 315.461 766.5 314.024 759.519 314.024H745.428V349.681V349.616Z" fill="white"/>
<path d="M964.887 352.816V372.734H950.991V429.29H923.526V372.734H913.806V352.816H923.526V350.596C923.526 341.126 926.006 334.073 930.964 329.436C935.922 324.8 942.576 322.514 950.926 322.514C954.384 322.514 957.776 322.775 961.103 323.298C964.43 323.82 966.844 324.277 968.41 324.669L964.43 344.392C963.452 344.065 962.277 343.869 960.973 343.673C959.668 343.477 958.494 343.412 957.515 343.412C954.906 343.412 953.209 343.934 952.296 345.045C951.383 346.155 950.926 347.592 950.926 349.355V352.751H964.822L964.887 352.816Z" fill="white"/>
<path d="M991.11 459.135C987.457 459.135 984.391 458.809 981.847 458.09C979.302 457.437 977.215 456.784 975.584 456.131L981.52 435.625C984.913 436.8 987.783 437.323 990.197 437.192C992.611 437.062 994.372 436.017 995.481 434.057L996.068 432.686L969.191 352.882H997.83L1010.16 405.845H1010.94L1023.47 352.882H1052.3L1024.45 435.69C1023.08 439.87 1020.92 443.723 1018.05 447.315C1015.18 450.906 1011.53 453.78 1007.09 455.935C1002.66 458.09 997.308 459.2 991.045 459.2L991.11 459.135Z" fill="white"/>
<path d="M1056.94 429.289V352.816H1084.4V429.289H1056.94ZM1070.64 344.849C1066.92 344.849 1063.72 343.608 1061.11 341.191C1058.5 338.775 1057.13 335.771 1057.13 332.31C1057.13 328.849 1058.44 325.91 1061.11 323.428C1063.79 320.947 1066.92 319.771 1070.64 319.771C1074.35 319.771 1077.55 321.012 1080.23 323.428C1082.9 325.845 1084.2 328.849 1084.2 332.31C1084.2 335.771 1082.9 338.71 1080.23 341.191C1077.55 343.673 1074.42 344.849 1070.64 344.849Z" fill="white"/>
<path d="M887.123 400.359H857.309V430.204H887.123V400.359Z" fill="#22C55E"/>
</svg>
